
          <svg xmlns="http://www.w3.org/2000/svg" xmlns:cc="http://creativecommons.org/ns#" xmlns:rdf="http://www.w3.org/1999/02/22-rdf-syntax-ns#" version="1.1" width="943.6334228515625" height="1541.2000732421875">
            <defs>
              <style type="text/css">svg {
          background-color: #fff; }
        
        .root text,
        .root tspan {
          font: 12px Arial; }
        
        .root path {
          fill-opacity: 0;
          stroke-width: 2px;
          stroke: #000; }
        
        .root circle {
          fill: #6b6659;
          stroke-width: 2px;
          stroke: #000; }
        
        .anchor text, .any-character text {
          fill: #fff; }
        
        .anchor rect, .any-character rect {
          fill: #6b6659; }
        
        .escape text, .charset-escape text, .literal text {
          fill: #000; }
        
        .escape rect, .charset-escape rect {
          fill: #bada55; }
        
        .literal rect {
          fill: #dae9e5; }
        
        .charset .charset-box {
          fill: #cbcbba; }
        
        .subexp .subexp-label tspan,
        .charset .charset-label tspan,
        .match-fragment .repeat-label tspan {
          font-size: 10px; }
        
        .repeat-label {
          cursor: help; }
        
        .subexp .subexp-label tspan,
        .charset .charset-label tspan {
          dominant-baseline: text-after-edge; }
        
        .subexp .subexp-box {
          stroke: #908c83;
          stroke-dasharray: 6,2;
          stroke-width: 2px;
          fill-opacity: 0; }
        
        .quote {
          fill: #908c83; }
        </style>
            </defs>
            <metadata>
              <rdf:rdf>
                <cc:license rdf:about="http://creativecommons.org/licenses/by/3.0/">
                  <cc:permits rdf:resource="http://creativecommons.org/ns#Reproduction"></cc:permits>
                  <cc:permits rdf:resource="http://creativecommons.org/ns#Distribution"></cc:permits>
                  <cc:requires rdf:resource="http://creativecommons.org/ns#Notice"></cc:requires>
                  <cc:requires rdf:resource="http://creativecommons.org/ns#Attribution"></cc:requires>
                  <cc:permits rdf:resource="http://creativecommons.org/ns#DerivativeWorks"></cc:permits>
                </cc:license>
              </rdf:rdf>
            </metadata>
          <desc>Created with Snap</desc><g class="root" transform="matrix(1,0,0,1,15,10)"><g class="regexp match" transform="matrix(1,0,0,1,10,0)"><path d="M71.22343444824219,766.2001001907348H91.2234M806.4001578125,766.2000612020493H826.4002"></path><g class="match-fragment" transform="matrix(1,0,0,1,0,754.4001)"><g class="label anchor"><rect width="71.22343826293945" height="23.600000381469727"></rect><text x="0" y="0" transform="matrix(1,0,0,1,5,16.8)"><tspan>Start of line</tspan></text></g></g><g class="match-fragment subexp" transform="matrix(1,0,0,1,81.2234,0)"><rect rx="3" ry="3" class="subexp-box" transform="matrix(1,0,0,1,0,11.2)" width="735.1767578125" height="1510.0001220703125"></rect><text x="0" y="0" class="subexp-label" transform="matrix(1,0,0,1,0,11.2)"><tspan>group #1</tspan></text><g class="regexp" transform="matrix(1,0,0,1,10,21.2)"><path d="M10,335.6000001907349q0,-10 10,-10M705.1767578125,335.6000001907349q0,-10 -10,-10M10,1063.1001245809555q0,10 10,10M705.1767578125,1063.1001245809555q0,10 -10,10M0,745.0000612020492q10,0 10,-10V335.6000001907349M715.1767578125,745.0000612020492q-10,0 -10,-10V335.6000001907349M0,745.0000612020492q10,0 10,10V1063.1001245809555M715.1767578125,745.0000612020492q-10,0 -10,10V1063.1001245809555"></path><g transform="matrix(1,0,0,1,20,0)" class="regexp-matches"><path d="M0,325.6000001907349h21.0384M665.1767877929688,325.6000001907349H675.1767578125M0,1073.1001245809555h162.3946M522.7821,1073.1001245809555H675.1767578125"></path><g class="match" transform="matrix(1,0,0,1,0,0)"><path d="M65.73840076293945,325.6000001907349H106.7768M180.12679847412107,325.6000001907349H205.1268M227.1268,325.6000001907349H247.1268"></path><g class="match-fragment subexp" transform="matrix(1,0,0,1,0,292.6)"><rect rx="3" ry="3" class="subexp-box" transform="matrix(1,0,0,1,0,11.2)" width="86.7767562866211" height="43.60000038146973"></rect><text x="0" y="0" class="subexp-label" transform="matrix(1,0,0,1,0,11.2)"><tspan>negative lookahead</tspan></text><g class="regexp match match-fragment literal" transform="matrix(1,0,0,1,21.0384,21.2)"><g class="label"><rect width="44.70000076293945" height="23.600000381469727" rx="3" ry="3"></rect><text x="0" y="0" transform="matrix(1,0,0,1,5,16.8)"><tspan class="quote">“</tspan><tspan>0000</tspan><tspan class="quote">”</tspan></text></g></g></g><g class="match-fragment" transform="matrix(1,0,0,1,96.7768,297.6)"><path d="M10,28.000000190734866q-10,0 -10,10v6.799999213218683q0,10 10,10h73.3499984741211q10,0 10,-10v-6.799999213218683q0,-10 -10,-10M93.3499984741211,43.000000190734866l5,-5m-5,5l-5,-5"></path><g class="charset" transform="matrix(1,0,0,1,10,0)"><rect rx="3" ry="3" class="charset-box" transform="matrix(1,0,0,1,0,11.2)" width="73.3499984741211" height="33.60000038146973"></rect><text x="0" y="0" class="charset-label" transform="matrix(1,0,0,1,0,11.2)"><tspan>One of:</tspan></text><g transform="matrix(1,0,0,1,5,16.2)"><g class="charset-range" transform="matrix(1,0,0,1,0,0)"><text x="0" y="0" transform="matrix(1,0,0,1,29.675,16.2)">-</text><g class="literal" transform="matrix(1,0,0,1,0,0)"><g class="label"><rect width="24.675000190734863" height="23.600000381469727" rx="3" ry="3"></rect><text x="0" y="0" transform="matrix(1,0,0,1,5,16.8)"><tspan class="quote">“</tspan><tspan>0</tspan><tspan class="quote">”</tspan></text></g></g><g class="literal" transform="matrix(1,0,0,1,38.675,0)"><g class="label"><rect width="24.675000190734863" height="23.600000381469727" rx="3" ry="3"></rect><text x="0" y="0" transform="matrix(1,0,0,1,5,16.8)"><tspan class="quote">“</tspan><tspan>9</tspan><tspan class="quote">”</tspan></text></g></g></g></g></g><text x="0" y="0" class="repeat-label" transform="matrix(1,0,0,1,65.5186,66)"><tspan>3 times</tspan><title><text x="0" y="0">repeats 4 times in total</text></title></text></g><g class="match-fragment literal" transform="matrix(1,0,0,1,205.1268,313.8)"><g class="label"><rect width="22" height="23.600000381469727" rx="3" ry="3"></rect><text x="0" y="0" transform="matrix(1,0,0,1,5,16.8)"><tspan class="quote">“</tspan><tspan>-</tspan><tspan class="quote">”</tspan></text></g></g><g class="match-fragment subexp" transform="matrix(1,0,0,1,237.1268,0)"><rect rx="3" ry="3" class="subexp-box" transform="matrix(1,0,0,1,0,11.2)" width="438.04998779296875" height="628.800048828125"></rect><text x="0" y="0" class="subexp-label" transform="matrix(1,0,0,1,0,11.2)"><tspan>group #2</tspan></text><g class="regexp" transform="matrix(1,0,0,1,10,21.2)"><path d="M10,103.39999940395356q0,-10 10,-10M408.04998779296875,103.39999940395356q0,-10 -10,-10M10,273.3999986410141q0,-10 10,-10M408.04998779296875,273.3999986410141q0,-10 -10,-10M10,470.0000032186508q0,10 10,10M408.04998779296875,470.0000032186508q0,10 -10,10M0,304.4000245809555q10,0 10,-10V103.39999940395356M418.04998779296875,304.4000245809555q-10,0 -10,-10V103.39999940395356M0,304.4000245809555q10,0 10,10V470.0000032186508M418.04998779296875,304.4000245809555q-10,0 -10,10V470.0000032186508"></path><g transform="matrix(1,0,0,1,20,0)" class="regexp-matches"><path d="M0,93.39999940395356h10M368.04999389648435,93.39999940395356H378.04998779296875M0,263.3999986410141h48.3375M329.71249847412105,263.3999986410141H378.04998779296875M0,480.0000032186508h111.675M276.37499847412107,480.0000032186508H378.04998779296875"></path><g class="match" transform="matrix(1,0,0,1,0,0)"><path d="M158.02499389648438,93.39999940395356H178.025M200.025,93.40000019073486H220.025"></path><g class="match-fragment subexp" transform="matrix(1,0,0,1,0,24.9)"><rect rx="3" ry="3" class="subexp-box" transform="matrix(1,0,0,1,0,11.2)" width="168.02499389648438" height="114.5999984741211"></rect><text x="0" y="0" class="subexp-label" transform="matrix(1,0,0,1,0,11.2)"><tspan>group #3</tspan></text><g class="regexp" transform="matrix(1,0,0,1,10,21.2)"><path d="M10,38.000000190734866q0,-10 10,-10M138.02499389648438,38.000000190734866q0,-10 -10,-10M10,67.80000019073486q0,10 10,10M138.02499389648438,67.80000019073486q0,10 -10,10M0,47.29999940395355q10,0 10,-10V38.000000190734866M148.02499389648438,47.29999940395355q-10,0 -10,-10V38.000000190734866M0,47.29999940395355q10,0 10,10V67.80000019073486M148.02499389648438,47.29999940395355q-10,0 -10,10V67.80000019073486"></path><g transform="matrix(1,0,0,1,20,0)" class="regexp-matches"><path d="M0,28.000000190734866h0M108.02499847412109,28.000000190734866H108.02499389648438M0,77.80000019073486h0M108.02499847412109,77.80000019073486H108.02499389648438"></path><g class="match" transform="matrix(1,0,0,1,0,0)"><path d="M24.674999237060547,28.000000190734866H34.675"></path><g class="match-fragment literal" transform="matrix(1,0,0,1,0,16.2)"><g class="label"><rect width="24.675000190734863" height="23.600000381469727" rx="3" ry="3"></rect><text x="0" y="0" transform="matrix(1,0,0,1,5,16.8)"><tspan class="quote">“</tspan><tspan>0</tspan><tspan class="quote">”</tspan></text></g></g><g class="match-fragment charset" transform="matrix(1,0,0,1,34.675,0)"><rect rx="3" ry="3" class="charset-box" transform="matrix(1,0,0,1,0,11.2)" width="73.3499984741211" height="33.60000038146973"></rect><text x="0" y="0" class="charset-label" transform="matrix(1,0,0,1,0,11.2)"><tspan>One of:</tspan></text><g transform="matrix(1,0,0,1,5,16.2)"><g class="charset-range" transform="matrix(1,0,0,1,0,0)"><text x="0" y="0" transform="matrix(1,0,0,1,29.675,16.2)">-</text><g class="literal" transform="matrix(1,0,0,1,0,0)"><g class="label"><rect width="24.675000190734863" height="23.600000381469727" rx="3" ry="3"></rect><text x="0" y="0" transform="matrix(1,0,0,1,5,16.8)"><tspan class="quote">“</tspan><tspan>1</tspan><tspan class="quote">”</tspan></text></g></g><g class="literal" transform="matrix(1,0,0,1,38.675,0)"><g class="label"><rect width="24.675000190734863" height="23.600000381469727" rx="3" ry="3"></rect><text x="0" y="0" transform="matrix(1,0,0,1,5,16.8)"><tspan class="quote">“</tspan><tspan>9</tspan><tspan class="quote">”</tspan></text></g></g></g></g></g></g><g class="match" transform="matrix(1,0,0,1,0,49.8)"><path d="M24.674999237060547,28.000000190734866H34.675"></path><g class="match-fragment literal" transform="matrix(1,0,0,1,0,16.2)"><g class="label"><rect width="24.675000190734863" height="23.600000381469727" rx="3" ry="3"></rect><text x="0" y="0" transform="matrix(1,0,0,1,5,16.8)"><tspan class="quote">“</tspan><tspan>1</tspan><tspan class="quote">”</tspan></text></g></g><g class="match-fragment charset" transform="matrix(1,0,0,1,34.675,0)"><rect rx="3" ry="3" class="charset-box" transform="matrix(1,0,0,1,0,11.2)" width="73.3499984741211" height="33.60000038146973"></rect><text x="0" y="0" class="charset-label" transform="matrix(1,0,0,1,0,11.2)"><tspan>One of:</tspan></text><g transform="matrix(1,0,0,1,5,16.2)"><g class="charset-range" transform="matrix(1,0,0,1,0,0)"><text x="0" y="0" transform="matrix(1,0,0,1,29.675,16.2)">-</text><g class="literal" transform="matrix(1,0,0,1,0,0)"><g class="label"><rect width="24.675000190734863" height="23.600000381469727" rx="3" ry="3"></rect><text x="0" y="0" transform="matrix(1,0,0,1,5,16.8)"><tspan class="quote">“</tspan><tspan>0</tspan><tspan class="quote">”</tspan></text></g></g><g class="literal" transform="matrix(1,0,0,1,38.675,0)"><g class="label"><rect width="24.675000190734863" height="23.600000381469727" rx="3" ry="3"></rect><text x="0" y="0" transform="matrix(1,0,0,1,5,16.8)"><tspan class="quote">“</tspan><tspan>2</tspan><tspan class="quote">”</tspan></text></g></g></g></g></g></g></g></g></g><g class="match-fragment literal" transform="matrix(1,0,0,1,178.025,81.6)"><g class="label"><rect width="22" height="23.600000381469727" rx="3" ry="3"></rect><text x="0" y="0" transform="matrix(1,0,0,1,5,16.8)"><tspan class="quote">“</tspan><tspan>-</tspan><tspan class="quote">”</tspan></text></g></g><g class="match-fragment subexp" transform="matrix(1,0,0,1,210.025,0)"><rect rx="3" ry="3" class="subexp-box" transform="matrix(1,0,0,1,0,11.2)" width="168.02499389648438" height="164.39999389648438"></rect><text x="0" y="0" class="subexp-label" transform="matrix(1,0,0,1,0,11.2)"><tspan>group #4</tspan></text><g class="regexp" transform="matrix(1,0,0,1,10,21.2)"><path d="M10,38.000000190734866q0,-10 10,-10M138.02499389648438,38.000000190734866q0,-10 -10,-10M0,72.19999711513519c10,0 10,5.600003075599673 20,5.600003075599673M148.02499389648438,72.19999711513519c-10,0 -10,5.600003075599673 -20,5.600003075599673M10,117.60000019073486q0,10 10,10M138.02499389648438,117.60000019073486q0,10 -10,10M0,72.19999711513519q10,0 10,-10V38.000000190734866M148.02499389648438,72.19999711513519q-10,0 -10,-10V38.000000190734866M0,72.19999711513519q10,0 10,10V117.60000019073486M148.02499389648438,72.19999711513519q-10,0 -10,10V117.60000019073486"></path><g transform="matrix(1,0,0,1,20,0)" class="regexp-matches"><path d="M0,28.000000190734866h0M108.02499847412109,28.000000190734866H108.02499389648438M0,77.80000019073486h0M108.02499847412109,77.80000019073486H108.02499389648438M0,127.60000019073486h0M108.02499847412109,127.60000019073486H108.02499389648438"></path><g class="match" transform="matrix(1,0,0,1,0,0)"><path d="M24.674999237060547,28.000000190734866H34.675"></path><g class="match-fragment literal" transform="matrix(1,0,0,1,0,16.2)"><g class="label"><rect width="24.675000190734863" height="23.600000381469727" rx="3" ry="3"></rect><text x="0" y="0" transform="matrix(1,0,0,1,5,16.8)"><tspan class="quote">“</tspan><tspan>0</tspan><tspan class="quote">”</tspan></text></g></g><g class="match-fragment charset" transform="matrix(1,0,0,1,34.675,0)"><rect rx="3" ry="3" class="charset-box" transform="matrix(1,0,0,1,0,11.2)" width="73.3499984741211" height="33.60000038146973"></rect><text x="0" y="0" class="charset-label" transform="matrix(1,0,0,1,0,11.2)"><tspan>One of:</tspan></text><g transform="matrix(1,0,0,1,5,16.2)"><g class="charset-range" transform="matrix(1,0,0,1,0,0)"><text x="0" y="0" transform="matrix(1,0,0,1,29.675,16.2)">-</text><g class="literal" transform="matrix(1,0,0,1,0,0)"><g class="label"><rect width="24.675000190734863" height="23.600000381469727" rx="3" ry="3"></rect><text x="0" y="0" transform="matrix(1,0,0,1,5,16.8)"><tspan class="quote">“</tspan><tspan>1</tspan><tspan class="quote">”</tspan></text></g></g><g class="literal" transform="matrix(1,0,0,1,38.675,0)"><g class="label"><rect width="24.675000190734863" height="23.600000381469727" rx="3" ry="3"></rect><text x="0" y="0" transform="matrix(1,0,0,1,5,16.8)"><tspan class="quote">“</tspan><tspan>9</tspan><tspan class="quote">”</tspan></text></g></g></g></g></g></g><g class="match" transform="matrix(1,0,0,1,0,49.8)"><path d="M24.674999237060547,28.000000190734866H34.675"></path><g class="match-fragment literal" transform="matrix(1,0,0,1,0,16.2)"><g class="label"><rect width="24.675000190734863" height="23.600000381469727" rx="3" ry="3"></rect><text x="0" y="0" transform="matrix(1,0,0,1,5,16.8)"><tspan class="quote">“</tspan><tspan>1</tspan><tspan class="quote">”</tspan></text></g></g><g class="match-fragment charset" transform="matrix(1,0,0,1,34.675,0)"><rect rx="3" ry="3" class="charset-box" transform="matrix(1,0,0,1,0,11.2)" width="73.3499984741211" height="33.60000038146973"></rect><text x="0" y="0" class="charset-label" transform="matrix(1,0,0,1,0,11.2)"><tspan>One of:</tspan></text><g transform="matrix(1,0,0,1,5,16.2)"><g class="charset-range" transform="matrix(1,0,0,1,0,0)"><text x="0" y="0" transform="matrix(1,0,0,1,29.675,16.2)">-</text><g class="literal" transform="matrix(1,0,0,1,0,0)"><g class="label"><rect width="24.675000190734863" height="23.600000381469727" rx="3" ry="3"></rect><text x="0" y="0" transform="matrix(1,0,0,1,5,16.8)"><tspan class="quote">“</tspan><tspan>0</tspan><tspan class="quote">”</tspan></text></g></g><g class="literal" transform="matrix(1,0,0,1,38.675,0)"><g class="label"><rect width="24.675000190734863" height="23.600000381469727" rx="3" ry="3"></rect><text x="0" y="0" transform="matrix(1,0,0,1,5,16.8)"><tspan class="quote">“</tspan><tspan>9</tspan><tspan class="quote">”</tspan></text></g></g></g></g></g></g><g class="match" transform="matrix(1,0,0,1,0,99.6)"><path d="M24.674999237060547,28.000000190734866H34.675"></path><g class="match-fragment literal" transform="matrix(1,0,0,1,0,16.2)"><g class="label"><rect width="24.675000190734863" height="23.600000381469727" rx="3" ry="3"></rect><text x="0" y="0" transform="matrix(1,0,0,1,5,16.8)"><tspan class="quote">“</tspan><tspan>2</tspan><tspan class="quote">”</tspan></text></g></g><g class="match-fragment charset" transform="matrix(1,0,0,1,34.675,0)"><rect rx="3" ry="3" class="charset-box" transform="matrix(1,0,0,1,0,11.2)" width="73.3499984741211" height="33.60000038146973"></rect><text x="0" y="0" class="charset-label" transform="matrix(1,0,0,1,0,11.2)"><tspan>One of:</tspan></text><g transform="matrix(1,0,0,1,5,16.2)"><g class="charset-range" transform="matrix(1,0,0,1,0,0)"><text x="0" y="0" transform="matrix(1,0,0,1,29.675,16.2)">-</text><g class="literal" transform="matrix(1,0,0,1,0,0)"><g class="label"><rect width="24.675000190734863" height="23.600000381469727" rx="3" ry="3"></rect><text x="0" y="0" transform="matrix(1,0,0,1,5,16.8)"><tspan class="quote">“</tspan><tspan>0</tspan><tspan class="quote">”</tspan></text></g></g><g class="literal" transform="matrix(1,0,0,1,38.675,0)"><g class="label"><rect width="24.675000190734863" height="23.600000381469727" rx="3" ry="3"></rect><text x="0" y="0" transform="matrix(1,0,0,1,5,16.8)"><tspan class="quote">“</tspan><tspan>8</tspan><tspan class="quote">”</tspan></text></g></g></g></g></g></g></g></g></g></g><g class="match" transform="matrix(1,0,0,1,38.3375,180.6)"><path d="M158.02499389648438,82.7999986410141H178.025M200.025,82.80000019073486H220.025"></path><g class="match-fragment subexp" transform="matrix(1,0,0,1,0,0)"><rect rx="3" ry="3" class="subexp-box" transform="matrix(1,0,0,1,0,11.2)" width="168.02499389648438" height="143.1999969482422"></rect><text x="0" y="0" class="subexp-label" transform="matrix(1,0,0,1,0,11.2)"><tspan>group #5</tspan></text><g class="regexp" transform="matrix(1,0,0,1,10,21.2)"><path d="M10,52.30000019073486q0,-10 10,-10M138.02499389648438,52.30000019073486q0,-10 -10,-10M10,96.40000019073487q0,10 10,10M138.02499389648438,96.40000019073487q0,10 -10,10M0,61.599998641014096q10,0 10,-10V52.30000019073486M148.02499389648438,61.599998641014096q-10,0 -10,-10V52.30000019073486M0,61.599998641014096q10,0 10,10V96.40000019073487M148.02499389648438,61.599998641014096q-10,0 -10,10V96.40000019073487"></path><g transform="matrix(1,0,0,1,20,0)" class="regexp-matches"><path d="M0,42.30000019073486h0M108.02499847412109,42.30000019073486H108.02499389648438M0,106.40000019073487h0M108.02499847412109,106.40000019073487H108.02499389648438"></path><g class="match" transform="matrix(1,0,0,1,0,0)"><path d="M24.674999237060547,42.30000019073486H34.675"></path><g class="match-fragment literal" transform="matrix(1,0,0,1,0,30.5)"><g class="label"><rect width="24.675000190734863" height="23.600000381469727" rx="3" ry="3"></rect><text x="0" y="0" transform="matrix(1,0,0,1,5,16.8)"><tspan class="quote">“</tspan><tspan>0</tspan><tspan class="quote">”</tspan></text></g></g><g class="match-fragment charset" transform="matrix(1,0,0,1,34.675,0)"><rect rx="3" ry="3" class="charset-box" transform="matrix(1,0,0,1,0,11.2)" width="73.3499984741211" height="62.20000076293945"></rect><text x="0" y="0" class="charset-label" transform="matrix(1,0,0,1,0,11.2)"><tspan>One of:</tspan></text><g transform="matrix(1,0,0,1,5,16.2)"><g class="literal" transform="matrix(1,0,0,1,19.3375,0)"><g class="label"><rect width="24.675000190734863" height="23.600000381469727" rx="3" ry="3"></rect><text x="0" y="0" transform="matrix(1,0,0,1,5,16.8)"><tspan class="quote">“</tspan><tspan>1</tspan><tspan class="quote">”</tspan></text></g></g><g class="charset-range" transform="matrix(1,0,0,1,0,28.6)"><text x="0" y="0" transform="matrix(1,0,0,1,29.675,16.2)">-</text><g class="literal" transform="matrix(1,0,0,1,0,0)"><g class="label"><rect width="24.675000190734863" height="23.600000381469727" rx="3" ry="3"></rect><text x="0" y="0" transform="matrix(1,0,0,1,5,16.8)"><tspan class="quote">“</tspan><tspan>3</tspan><tspan class="quote">”</tspan></text></g></g><g class="literal" transform="matrix(1,0,0,1,38.675,0)"><g class="label"><rect width="24.675000190734863" height="23.600000381469727" rx="3" ry="3"></rect><text x="0" y="0" transform="matrix(1,0,0,1,5,16.8)"><tspan class="quote">“</tspan><tspan>9</tspan><tspan class="quote">”</tspan></text></g></g></g></g></g></g><g class="match" transform="matrix(1,0,0,1,0,78.4)"><path d="M24.674999237060547,28.000000190734866H34.675"></path><g class="match-fragment literal" transform="matrix(1,0,0,1,0,16.2)"><g class="label"><rect width="24.675000190734863" height="23.600000381469727" rx="3" ry="3"></rect><text x="0" y="0" transform="matrix(1,0,0,1,5,16.8)"><tspan class="quote">“</tspan><tspan>1</tspan><tspan class="quote">”</tspan></text></g></g><g class="match-fragment charset" transform="matrix(1,0,0,1,34.675,0)"><rect rx="3" ry="3" class="charset-box" transform="matrix(1,0,0,1,0,11.2)" width="73.3499984741211" height="33.60000038146973"></rect><text x="0" y="0" class="charset-label" transform="matrix(1,0,0,1,0,11.2)"><tspan>One of:</tspan></text><g transform="matrix(1,0,0,1,5,16.2)"><g class="charset-range" transform="matrix(1,0,0,1,0,0)"><text x="0" y="0" transform="matrix(1,0,0,1,29.675,16.2)">-</text><g class="literal" transform="matrix(1,0,0,1,0,0)"><g class="label"><rect width="24.675000190734863" height="23.600000381469727" rx="3" ry="3"></rect><text x="0" y="0" transform="matrix(1,0,0,1,5,16.8)"><tspan class="quote">“</tspan><tspan>0</tspan><tspan class="quote">”</tspan></text></g></g><g class="literal" transform="matrix(1,0,0,1,38.675,0)"><g class="label"><rect width="24.675000190734863" height="23.600000381469727" rx="3" ry="3"></rect><text x="0" y="0" transform="matrix(1,0,0,1,5,16.8)"><tspan class="quote">“</tspan><tspan>2</tspan><tspan class="quote">”</tspan></text></g></g></g></g></g></g></g></g></g><g class="match-fragment literal" transform="matrix(1,0,0,1,178.025,71)"><g class="label"><rect width="22" height="23.600000381469727" rx="3" ry="3"></rect><text x="0" y="0" transform="matrix(1,0,0,1,5,16.8)"><tspan class="quote">“</tspan><tspan>-</tspan><tspan class="quote">”</tspan></text></g></g><g class="match-fragment subexp" transform="matrix(1,0,0,1,210.025,35.5)"><rect rx="3" ry="3" class="subexp-box" transform="matrix(1,0,0,1,0,11.2)" width="91.3499984741211" height="72.20000076293945"></rect><text x="0" y="0" class="subexp-label" transform="matrix(1,0,0,1,0,11.2)"><tspan>group #6</tspan></text><g class="regexp" transform="matrix(1,0,0,1,10,21.2)"><path d="M0,26.100000381469727c10,0 10,-14.300000190734863 20,-14.300000190734863M71.35000038146973,26.100000381469727c-10,0 -10,-14.300000190734863 -20,-14.300000190734863M0,26.100000381469727c10,0 10,14.299999809265138 20,14.299999809265138M71.35000038146973,26.100000381469727c-10,0 -10,14.299999809265138 -20,14.299999809265138"></path><g transform="matrix(1,0,0,1,20,0)" class="regexp-matches"><path d="M0,11.800000190734863h0M31.350000381469727,11.800000190734863H31.350000381469727M0,40.400000190734865h0M31.350000381469727,40.400000190734865H31.350000381469727"></path><g class="match match-fragment literal" transform="matrix(1,0,0,1,0,0)"><g class="label"><rect width="31.350000381469727" height="23.600000381469727" rx="3" ry="3"></rect><text x="0" y="0" transform="matrix(1,0,0,1,5,16.8)"><tspan class="quote">“</tspan><tspan>29</tspan><tspan class="quote">”</tspan></text></g></g><g class="match match-fragment literal" transform="matrix(1,0,0,1,0,28.6)"><g class="label"><rect width="31.350000381469727" height="23.600000381469727" rx="3" ry="3"></rect><text x="0" y="0" transform="matrix(1,0,0,1,5,16.8)"><tspan class="quote">“</tspan><tspan>30</tspan><tspan class="quote">”</tspan></text></g></g></g></g></g></g><g class="match" transform="matrix(1,0,0,1,101.675,340)"><path d="M119.3499984741211,140.00000321865082H139.35"></path><g class="match-fragment subexp" transform="matrix(1,0,0,1,0,0)"><rect rx="3" ry="3" class="subexp-box" transform="matrix(1,0,0,1,0,11.2)" width="129.3499984741211" height="257.6000061035156"></rect><text x="0" y="0" class="subexp-label" transform="matrix(1,0,0,1,0,11.2)"><tspan>group #7</tspan></text><g class="regexp" transform="matrix(1,0,0,1,10,21.2)"><path d="M10,95.20000019073487q0,-10 10,-10M99.3499984741211,95.20000019073487q0,-10 -10,-10M10,196.50000019073485q0,10 10,10M99.3499984741211,196.50000019073485q0,10 -10,10M0,118.80000321865082q10,0 10,-10V95.20000019073487M109.3499984741211,118.80000321865082q-10,0 -10,-10V95.20000019073487M0,118.80000321865082q10,0 10,10V196.50000019073485M109.3499984741211,118.80000321865082q-10,0 -10,10V196.50000019073485"></path><g transform="matrix(1,0,0,1,20,0)" class="regexp-matches"><path d="M0,85.20000019073487h0M69.34999923706054,85.20000019073487H69.3499984741211M0,206.50000019073485h0M69.34999923706054,206.50000019073485H69.3499984741211"></path><g class="match" transform="matrix(1,0,0,1,0,0)"><path d="M24.674999237060547,85.20000019073487H34.675"></path><g class="match-fragment literal" transform="matrix(1,0,0,1,0,73.4)"><g class="label"><rect width="24.675000190734863" height="23.600000381469727" rx="3" ry="3"></rect><text x="0" y="0" transform="matrix(1,0,0,1,5,16.8)"><tspan class="quote">“</tspan><tspan>0</tspan><tspan class="quote">”</tspan></text></g></g><g class="match-fragment charset" transform="matrix(1,0,0,1,34.675,0)"><rect rx="3" ry="3" class="charset-box" transform="matrix(1,0,0,1,0,11.2)" width="34.67499923706055" height="148"></rect><text x="0" y="0" class="charset-label" transform="matrix(1,0,0,1,0,11.2)"><tspan>One of:</tspan></text><g transform="matrix(1,0,0,1,5,16.2)"><g class="literal" transform="matrix(1,0,0,1,0,0)"><g class="label"><rect width="24.675000190734863" height="23.600000381469727" rx="3" ry="3"></rect><text x="0" y="0" transform="matrix(1,0,0,1,5,16.8)"><tspan class="quote">“</tspan><tspan>1</tspan><tspan class="quote">”</tspan></text></g></g><g class="literal" transform="matrix(1,0,0,1,0,28.6)"><g class="label"><rect width="24.675000190734863" height="23.600000381469727" rx="3" ry="3"></rect><text x="0" y="0" transform="matrix(1,0,0,1,5,16.8)"><tspan class="quote">“</tspan><tspan>3</tspan><tspan class="quote">”</tspan></text></g></g><g class="literal" transform="matrix(1,0,0,1,0,57.2)"><g class="label"><rect width="24.675000190734863" height="23.600000381469727" rx="3" ry="3"></rect><text x="0" y="0" transform="matrix(1,0,0,1,5,16.8)"><tspan class="quote">“</tspan><tspan>5</tspan><tspan class="quote">”</tspan></text></g></g><g class="literal" transform="matrix(1,0,0,1,0,85.8)"><g class="label"><rect width="24.675000190734863" height="23.600000381469727" rx="3" ry="3"></rect><text x="0" y="0" transform="matrix(1,0,0,1,5,16.8)"><tspan class="quote">“</tspan><tspan>7</tspan><tspan class="quote">”</tspan></text></g></g><g class="literal" transform="matrix(1,0,0,1,0,114.4)"><g class="label"><rect width="24.675000190734863" height="23.600000381469727" rx="3" ry="3"></rect><text x="0" y="0" transform="matrix(1,0,0,1,5,16.8)"><tspan class="quote">“</tspan><tspan>8</tspan><tspan class="quote">”</tspan></text></g></g></g></g></g><g class="match" transform="matrix(1,0,0,1,0,164.2)"><path d="M24.674999237060547,42.30000019073486H34.675"></path><g class="match-fragment literal" transform="matrix(1,0,0,1,0,30.5)"><g class="label"><rect width="24.675000190734863" height="23.600000381469727" rx="3" ry="3"></rect><text x="0" y="0" transform="matrix(1,0,0,1,5,16.8)"><tspan class="quote">“</tspan><tspan>1</tspan><tspan class="quote">”</tspan></text></g></g><g class="match-fragment charset" transform="matrix(1,0,0,1,34.675,0)"><rect rx="3" ry="3" class="charset-box" transform="matrix(1,0,0,1,0,11.2)" width="34.67499923706055" height="62.20000076293945"></rect><text x="0" y="0" class="charset-label" transform="matrix(1,0,0,1,0,11.2)"><tspan>One of:</tspan></text><g transform="matrix(1,0,0,1,5,16.2)"><g class="literal" transform="matrix(1,0,0,1,0,0)"><g class="label"><rect width="24.675000190734863" height="23.600000381469727" rx="3" ry="3"></rect><text x="0" y="0" transform="matrix(1,0,0,1,5,16.8)"><tspan class="quote">“</tspan><tspan>0</tspan><tspan class="quote">”</tspan></text></g></g><g class="literal" transform="matrix(1,0,0,1,0,28.6)"><g class="label"><rect width="24.675000190734863" height="23.600000381469727" rx="3" ry="3"></rect><text x="0" y="0" transform="matrix(1,0,0,1,5,16.8)"><tspan class="quote">“</tspan><tspan>2</tspan><tspan class="quote">”</tspan></text></g></g></g></g></g></g></g></g><g class="match-fragment literal" transform="matrix(1,0,0,1,139.35,128.2)"><g class="label"><rect width="35.35000038146973" height="23.600000381469727" rx="3" ry="3"></rect><text x="0" y="0" transform="matrix(1,0,0,1,5,16.8)"><tspan class="quote">“</tspan><tspan>-31</tspan><tspan class="quote">”</tspan></text></g></g></g></g></g></g></g><g class="match" transform="matrix(1,0,0,1,152.3946,645.0001)"><path d="M297.70001220703125,428.1000245809555H317.7"></path><g class="match-fragment subexp" transform="matrix(1,0,0,1,0,0)"><rect rx="3" ry="3" class="subexp-box" transform="matrix(1,0,0,1,0,11.2)" width="307.70001220703125" height="833.800048828125"></rect><text x="0" y="0" class="subexp-label" transform="matrix(1,0,0,1,0,11.2)"><tspan>group #8</tspan></text><g class="regexp" transform="matrix(1,0,0,1,10,21.2)"><path d="M10,217.80000019073486q0,-10 10,-10M277.70001220703125,217.80000019073486q0,-10 -10,-10M10,607.2000062704086q0,10 10,10M277.70001220703125,607.2000062704086q0,10 -10,10M0,406.9000245809555q10,0 10,-10V217.80000019073486M287.70001220703125,406.9000245809555q-10,0 -10,-10V217.80000019073486M0,406.9000245809555q10,0 10,10V607.2000062704086M287.70001220703125,406.9000245809555q-10,0 -10,10V607.2000062704086"></path><g transform="matrix(1,0,0,1,20,0)" class="regexp-matches"><path d="M0,207.80000019073486h10M237.6999984741211,207.80000019073486H247.70001220703125M0,617.2000062704086h43.5M214.20000038146972,617.2000062704086H247.70001220703125"></path><g class="match" transform="matrix(1,0,0,1,0,0)"><path d="M83.3499984741211,207.80000019073486H118.35"></path><g class="match-fragment" transform="matrix(1,0,0,1,0,179.8)"><path d="M10,28.000000190734866q-10,0 -10,10v6.799999213218683q0,10 10,10h73.3499984741211q10,0 10,-10v-6.799999213218683q0,-10 -10,-10M93.3499984741211,43.000000190734866l5,-5m-5,5l-5,-5"></path><g class="charset" transform="matrix(1,0,0,1,10,0)"><rect rx="3" ry="3" class="charset-box" transform="matrix(1,0,0,1,0,11.2)" width="73.3499984741211" height="33.60000038146973"></rect><text x="0" y="0" class="charset-label" transform="matrix(1,0,0,1,0,11.2)"><tspan>One of:</tspan></text><g transform="matrix(1,0,0,1,5,16.2)"><g class="charset-range" transform="matrix(1,0,0,1,0,0)"><text x="0" y="0" transform="matrix(1,0,0,1,29.675,16.2)">-</text><g class="literal" transform="matrix(1,0,0,1,0,0)"><g class="label"><rect width="24.675000190734863" height="23.600000381469727" rx="3" ry="3"></rect><text x="0" y="0" transform="matrix(1,0,0,1,5,16.8)"><tspan class="quote">“</tspan><tspan>0</tspan><tspan class="quote">”</tspan></text></g></g><g class="literal" transform="matrix(1,0,0,1,38.675,0)"><g class="label"><rect width="24.675000190734863" height="23.600000381469727" rx="3" ry="3"></rect><text x="0" y="0" transform="matrix(1,0,0,1,5,16.8)"><tspan class="quote">“</tspan><tspan>9</tspan><tspan class="quote">”</tspan></text></g></g></g></g></g><text x="0" y="0" class="repeat-label" transform="matrix(1,0,0,1,76.627,66)"><tspan>once</tspan><title><text x="0" y="0">repeats 2 times in total</text></title></text></g><g class="match-fragment subexp" transform="matrix(1,0,0,1,108.35,0)"><rect rx="3" ry="3" class="subexp-box" transform="matrix(1,0,0,1,0,11.2)" width="139.3499984741211" height="393.20001220703125"></rect><text x="0" y="0" class="subexp-label" transform="matrix(1,0,0,1,0,11.2)"><tspan>group #9</tspan></text><g class="regexp" transform="matrix(1,0,0,1,10,21.2)"><path d="M10,52.30000019073486q0,-10 10,-10M109.3499984741211,52.30000019073486q0,-10 -10,-10M10,159.30000076293948q0,-10 10,-10M109.3499984741211,159.30000076293948q0,-10 -10,-10M10,289.2q0,10 10,10M109.3499984741211,289.2q0,10 -10,10M0,186.60000627040864q10,0 10,-10V52.30000019073486M119.3499984741211,186.60000627040864q-10,0 -10,-10V52.30000019073486M0,186.60000627040864q10,0 10,10V289.2M119.3499984741211,186.60000627040864q-10,0 -10,10V289.2"></path><g transform="matrix(1,0,0,1,20,0)" class="regexp-matches"><path d="M0,42.30000019073486h5M74.34999923706054,42.30000019073486H79.3499984741211M0,149.30000076293948h0M79.34999923706054,149.30000076293948H79.3499984741211M0,299.2h0M79.34999923706054,299.2H79.3499984741211"></path><g class="match" transform="matrix(1,0,0,1,5,0)"><path d="M24.674999237060547,42.30000019073486H34.675"></path><g class="match-fragment literal" transform="matrix(1,0,0,1,0,30.5)"><g class="label"><rect width="24.675000190734863" height="23.600000381469727" rx="3" ry="3"></rect><text x="0" y="0" transform="matrix(1,0,0,1,5,16.8)"><tspan class="quote">“</tspan><tspan>0</tspan><tspan class="quote">”</tspan></text></g></g><g class="match-fragment charset" transform="matrix(1,0,0,1,34.675,0)"><rect rx="3" ry="3" class="charset-box" transform="matrix(1,0,0,1,0,11.2)" width="34.67499923706055" height="62.20000076293945"></rect><text x="0" y="0" class="charset-label" transform="matrix(1,0,0,1,0,11.2)"><tspan>One of:</tspan></text><g transform="matrix(1,0,0,1,5,16.2)"><g class="literal" transform="matrix(1,0,0,1,0,0)"><g class="label"><rect width="24.675000190734863" height="23.600000381469727" rx="3" ry="3"></rect><text x="0" y="0" transform="matrix(1,0,0,1,5,16.8)"><tspan class="quote">“</tspan><tspan>4</tspan><tspan class="quote">”</tspan></text></g></g><g class="literal" transform="matrix(1,0,0,1,0,28.6)"><g class="label"><rect width="24.675000190734863" height="23.600000381469727" rx="3" ry="3"></rect><text x="0" y="0" transform="matrix(1,0,0,1,5,16.8)"><tspan class="quote">“</tspan><tspan>8</tspan><tspan class="quote">”</tspan></text></g></g></g></g></g><g class="match" transform="matrix(1,0,0,1,0,78.4)"><path d="M34.67499923706055,70.90000076293946H44.675"></path><g class="match-fragment charset" transform="matrix(1,0,0,1,0,0)"><rect rx="3" ry="3" class="charset-box" transform="matrix(1,0,0,1,0,11.2)" width="34.67499923706055" height="119.4000015258789"></rect><text x="0" y="0" class="charset-label" transform="matrix(1,0,0,1,0,11.2)"><tspan>One of:</tspan></text><g transform="matrix(1,0,0,1,5,16.2)"><g class="literal" transform="matrix(1,0,0,1,0,0)"><g class="label"><rect width="24.675000190734863" height="23.600000381469727" rx="3" ry="3"></rect><text x="0" y="0" transform="matrix(1,0,0,1,5,16.8)"><tspan class="quote">“</tspan><tspan>2</tspan><tspan class="quote">”</tspan></text></g></g><g class="literal" transform="matrix(1,0,0,1,0,28.6)"><g class="label"><rect width="24.675000190734863" height="23.600000381469727" rx="3" ry="3"></rect><text x="0" y="0" transform="matrix(1,0,0,1,5,16.8)"><tspan class="quote">“</tspan><tspan>4</tspan><tspan class="quote">”</tspan></text></g></g><g class="literal" transform="matrix(1,0,0,1,0,57.2)"><g class="label"><rect width="24.675000190734863" height="23.600000381469727" rx="3" ry="3"></rect><text x="0" y="0" transform="matrix(1,0,0,1,5,16.8)"><tspan class="quote">“</tspan><tspan>6</tspan><tspan class="quote">”</tspan></text></g></g><g class="literal" transform="matrix(1,0,0,1,0,85.8)"><g class="label"><rect width="24.675000190734863" height="23.600000381469727" rx="3" ry="3"></rect><text x="0" y="0" transform="matrix(1,0,0,1,5,16.8)"><tspan class="quote">“</tspan><tspan>8</tspan><tspan class="quote">”</tspan></text></g></g></g></g><g class="match-fragment charset" transform="matrix(1,0,0,1,44.675,14.3)"><rect rx="3" ry="3" class="charset-box" transform="matrix(1,0,0,1,0,11.2)" width="34.67499923706055" height="90.80000305175781"></rect><text x="0" y="0" class="charset-label" transform="matrix(1,0,0,1,0,11.2)"><tspan>One of:</tspan></text><g transform="matrix(1,0,0,1,5,16.2)"><g class="literal" transform="matrix(1,0,0,1,0,0)"><g class="label"><rect width="24.675000190734863" height="23.600000381469727" rx="3" ry="3"></rect><text x="0" y="0" transform="matrix(1,0,0,1,5,16.8)"><tspan class="quote">“</tspan><tspan>0</tspan><tspan class="quote">”</tspan></text></g></g><g class="literal" transform="matrix(1,0,0,1,0,28.6)"><g class="label"><rect width="24.675000190734863" height="23.600000381469727" rx="3" ry="3"></rect><text x="0" y="0" transform="matrix(1,0,0,1,5,16.8)"><tspan class="quote">“</tspan><tspan>4</tspan><tspan class="quote">”</tspan></text></g></g><g class="literal" transform="matrix(1,0,0,1,0,57.2)"><g class="label"><rect width="24.675000190734863" height="23.600000381469727" rx="3" ry="3"></rect><text x="0" y="0" transform="matrix(1,0,0,1,5,16.8)"><tspan class="quote">“</tspan><tspan>8</tspan><tspan class="quote">”</tspan></text></g></g></g></g></g><g class="match" transform="matrix(1,0,0,1,0,214)"><path d="M34.67499923706055,85.2H44.675"></path><g class="match-fragment charset" transform="matrix(1,0,0,1,0,0)"><rect rx="3" ry="3" class="charset-box" transform="matrix(1,0,0,1,0,11.2)" width="34.67499923706055" height="148"></rect><text x="0" y="0" class="charset-label" transform="matrix(1,0,0,1,0,11.2)"><tspan>One of:</tspan></text><g transform="matrix(1,0,0,1,5,16.2)"><g class="literal" transform="matrix(1,0,0,1,0,0)"><g class="label"><rect width="24.675000190734863" height="23.600000381469727" rx="3" ry="3"></rect><text x="0" y="0" transform="matrix(1,0,0,1,5,16.8)"><tspan class="quote">“</tspan><tspan>1</tspan><tspan class="quote">”</tspan></text></g></g><g class="literal" transform="matrix(1,0,0,1,0,28.6)"><g class="label"><rect width="24.675000190734863" height="23.600000381469727" rx="3" ry="3"></rect><text x="0" y="0" transform="matrix(1,0,0,1,5,16.8)"><tspan class="quote">“</tspan><tspan>3</tspan><tspan class="quote">”</tspan></text></g></g><g class="literal" transform="matrix(1,0,0,1,0,57.2)"><g class="label"><rect width="24.675000190734863" height="23.600000381469727" rx="3" ry="3"></rect><text x="0" y="0" transform="matrix(1,0,0,1,5,16.8)"><tspan class="quote">“</tspan><tspan>5</tspan><tspan class="quote">”</tspan></text></g></g><g class="literal" transform="matrix(1,0,0,1,0,85.8)"><g class="label"><rect width="24.675000190734863" height="23.600000381469727" rx="3" ry="3"></rect><text x="0" y="0" transform="matrix(1,0,0,1,5,16.8)"><tspan class="quote">“</tspan><tspan>7</tspan><tspan class="quote">”</tspan></text></g></g><g class="literal" transform="matrix(1,0,0,1,0,114.4)"><g class="label"><rect width="24.675000190734863" height="23.600000381469727" rx="3" ry="3"></rect><text x="0" y="0" transform="matrix(1,0,0,1,5,16.8)"><tspan class="quote">“</tspan><tspan>9</tspan><tspan class="quote">”</tspan></text></g></g></g></g><g class="match-fragment charset" transform="matrix(1,0,0,1,44.675,42.9)"><rect rx="3" ry="3" class="charset-box" transform="matrix(1,0,0,1,0,11.2)" width="34.67499923706055" height="62.20000076293945"></rect><text x="0" y="0" class="charset-label" transform="matrix(1,0,0,1,0,11.2)"><tspan>One of:</tspan></text><g transform="matrix(1,0,0,1,5,16.2)"><g class="literal" transform="matrix(1,0,0,1,0,0)"><g class="label"><rect width="24.675000190734863" height="23.600000381469727" rx="3" ry="3"></rect><text x="0" y="0" transform="matrix(1,0,0,1,5,16.8)"><tspan class="quote">“</tspan><tspan>2</tspan><tspan class="quote">”</tspan></text></g></g><g class="literal" transform="matrix(1,0,0,1,0,28.6)"><g class="label"><rect width="24.675000190734863" height="23.600000381469727" rx="3" ry="3"></rect><text x="0" y="0" transform="matrix(1,0,0,1,5,16.8)"><tspan class="quote">“</tspan><tspan>6</tspan><tspan class="quote">”</tspan></text></g></g></g></g></g></g></g></g></g><g class="match" transform="matrix(1,0,0,1,33.5,409.4)"><path d="M129.3499984741211,207.80000627040863H149.35"></path><g class="match-fragment subexp" transform="matrix(1,0,0,1,0,0)"><rect rx="3" ry="3" class="subexp-box" transform="matrix(1,0,0,1,0,11.2)" width="139.3499984741211" height="393.20001220703125"></rect><text x="0" y="0" class="subexp-label" transform="matrix(1,0,0,1,0,11.2)"><tspan>group #10</tspan></text><g class="regexp" transform="matrix(1,0,0,1,10,21.2)"><path d="M10,52.30000019073486q0,-10 10,-10M109.3499984741211,52.30000019073486q0,-10 -10,-10M10,159.30000076293948q0,-10 10,-10M109.3499984741211,159.30000076293948q0,-10 -10,-10M10,289.2q0,10 10,10M109.3499984741211,289.2q0,10 -10,10M0,186.60000627040864q10,0 10,-10V52.30000019073486M119.3499984741211,186.60000627040864q-10,0 -10,-10V52.30000019073486M0,186.60000627040864q10,0 10,10V289.2M119.3499984741211,186.60000627040864q-10,0 -10,10V289.2"></path><g transform="matrix(1,0,0,1,20,0)" class="regexp-matches"><path d="M0,42.30000019073486h5M74.34999923706054,42.30000019073486H79.3499984741211M0,149.30000076293948h0M79.34999923706054,149.30000076293948H79.3499984741211M0,299.2h0M79.34999923706054,299.2H79.3499984741211"></path><g class="match" transform="matrix(1,0,0,1,5,0)"><path d="M24.674999237060547,42.30000019073486H34.675"></path><g class="match-fragment literal" transform="matrix(1,0,0,1,0,30.5)"><g class="label"><rect width="24.675000190734863" height="23.600000381469727" rx="3" ry="3"></rect><text x="0" y="0" transform="matrix(1,0,0,1,5,16.8)"><tspan class="quote">“</tspan><tspan>0</tspan><tspan class="quote">”</tspan></text></g></g><g class="match-fragment charset" transform="matrix(1,0,0,1,34.675,0)"><rect rx="3" ry="3" class="charset-box" transform="matrix(1,0,0,1,0,11.2)" width="34.67499923706055" height="62.20000076293945"></rect><text x="0" y="0" class="charset-label" transform="matrix(1,0,0,1,0,11.2)"><tspan>One of:</tspan></text><g transform="matrix(1,0,0,1,5,16.2)"><g class="literal" transform="matrix(1,0,0,1,0,0)"><g class="label"><rect width="24.675000190734863" height="23.600000381469727" rx="3" ry="3"></rect><text x="0" y="0" transform="matrix(1,0,0,1,5,16.8)"><tspan class="quote">“</tspan><tspan>4</tspan><tspan class="quote">”</tspan></text></g></g><g class="literal" transform="matrix(1,0,0,1,0,28.6)"><g class="label"><rect width="24.675000190734863" height="23.600000381469727" rx="3" ry="3"></rect><text x="0" y="0" transform="matrix(1,0,0,1,5,16.8)"><tspan class="quote">“</tspan><tspan>8</tspan><tspan class="quote">”</tspan></text></g></g></g></g></g><g class="match" transform="matrix(1,0,0,1,0,78.4)"><path d="M34.67499923706055,70.90000076293946H44.675"></path><g class="match-fragment charset" transform="matrix(1,0,0,1,0,0)"><rect rx="3" ry="3" class="charset-box" transform="matrix(1,0,0,1,0,11.2)" width="34.67499923706055" height="119.4000015258789"></rect><text x="0" y="0" class="charset-label" transform="matrix(1,0,0,1,0,11.2)"><tspan>One of:</tspan></text><g transform="matrix(1,0,0,1,5,16.2)"><g class="literal" transform="matrix(1,0,0,1,0,0)"><g class="label"><rect width="24.675000190734863" height="23.600000381469727" rx="3" ry="3"></rect><text x="0" y="0" transform="matrix(1,0,0,1,5,16.8)"><tspan class="quote">“</tspan><tspan>2</tspan><tspan class="quote">”</tspan></text></g></g><g class="literal" transform="matrix(1,0,0,1,0,28.6)"><g class="label"><rect width="24.675000190734863" height="23.600000381469727" rx="3" ry="3"></rect><text x="0" y="0" transform="matrix(1,0,0,1,5,16.8)"><tspan class="quote">“</tspan><tspan>4</tspan><tspan class="quote">”</tspan></text></g></g><g class="literal" transform="matrix(1,0,0,1,0,57.2)"><g class="label"><rect width="24.675000190734863" height="23.600000381469727" rx="3" ry="3"></rect><text x="0" y="0" transform="matrix(1,0,0,1,5,16.8)"><tspan class="quote">“</tspan><tspan>6</tspan><tspan class="quote">”</tspan></text></g></g><g class="literal" transform="matrix(1,0,0,1,0,85.8)"><g class="label"><rect width="24.675000190734863" height="23.600000381469727" rx="3" ry="3"></rect><text x="0" y="0" transform="matrix(1,0,0,1,5,16.8)"><tspan class="quote">“</tspan><tspan>8</tspan><tspan class="quote">”</tspan></text></g></g></g></g><g class="match-fragment charset" transform="matrix(1,0,0,1,44.675,14.3)"><rect rx="3" ry="3" class="charset-box" transform="matrix(1,0,0,1,0,11.2)" width="34.67499923706055" height="90.80000305175781"></rect><text x="0" y="0" class="charset-label" transform="matrix(1,0,0,1,0,11.2)"><tspan>One of:</tspan></text><g transform="matrix(1,0,0,1,5,16.2)"><g class="literal" transform="matrix(1,0,0,1,0,0)"><g class="label"><rect width="24.675000190734863" height="23.600000381469727" rx="3" ry="3"></rect><text x="0" y="0" transform="matrix(1,0,0,1,5,16.8)"><tspan class="quote">“</tspan><tspan>0</tspan><tspan class="quote">”</tspan></text></g></g><g class="literal" transform="matrix(1,0,0,1,0,28.6)"><g class="label"><rect width="24.675000190734863" height="23.600000381469727" rx="3" ry="3"></rect><text x="0" y="0" transform="matrix(1,0,0,1,5,16.8)"><tspan class="quote">“</tspan><tspan>4</tspan><tspan class="quote">”</tspan></text></g></g><g class="literal" transform="matrix(1,0,0,1,0,57.2)"><g class="label"><rect width="24.675000190734863" height="23.600000381469727" rx="3" ry="3"></rect><text x="0" y="0" transform="matrix(1,0,0,1,5,16.8)"><tspan class="quote">“</tspan><tspan>8</tspan><tspan class="quote">”</tspan></text></g></g></g></g></g><g class="match" transform="matrix(1,0,0,1,0,214)"><path d="M34.67499923706055,85.2H44.675"></path><g class="match-fragment charset" transform="matrix(1,0,0,1,0,0)"><rect rx="3" ry="3" class="charset-box" transform="matrix(1,0,0,1,0,11.2)" width="34.67499923706055" height="148"></rect><text x="0" y="0" class="charset-label" transform="matrix(1,0,0,1,0,11.2)"><tspan>One of:</tspan></text><g transform="matrix(1,0,0,1,5,16.2)"><g class="literal" transform="matrix(1,0,0,1,0,0)"><g class="label"><rect width="24.675000190734863" height="23.600000381469727" rx="3" ry="3"></rect><text x="0" y="0" transform="matrix(1,0,0,1,5,16.8)"><tspan class="quote">“</tspan><tspan>1</tspan><tspan class="quote">”</tspan></text></g></g><g class="literal" transform="matrix(1,0,0,1,0,28.6)"><g class="label"><rect width="24.675000190734863" height="23.600000381469727" rx="3" ry="3"></rect><text x="0" y="0" transform="matrix(1,0,0,1,5,16.8)"><tspan class="quote">“</tspan><tspan>3</tspan><tspan class="quote">”</tspan></text></g></g><g class="literal" transform="matrix(1,0,0,1,0,57.2)"><g class="label"><rect width="24.675000190734863" height="23.600000381469727" rx="3" ry="3"></rect><text x="0" y="0" transform="matrix(1,0,0,1,5,16.8)"><tspan class="quote">“</tspan><tspan>5</tspan><tspan class="quote">”</tspan></text></g></g><g class="literal" transform="matrix(1,0,0,1,0,85.8)"><g class="label"><rect width="24.675000190734863" height="23.600000381469727" rx="3" ry="3"></rect><text x="0" y="0" transform="matrix(1,0,0,1,5,16.8)"><tspan class="quote">“</tspan><tspan>7</tspan><tspan class="quote">”</tspan></text></g></g><g class="literal" transform="matrix(1,0,0,1,0,114.4)"><g class="label"><rect width="24.675000190734863" height="23.600000381469727" rx="3" ry="3"></rect><text x="0" y="0" transform="matrix(1,0,0,1,5,16.8)"><tspan class="quote">“</tspan><tspan>9</tspan><tspan class="quote">”</tspan></text></g></g></g></g><g class="match-fragment charset" transform="matrix(1,0,0,1,44.675,42.9)"><rect rx="3" ry="3" class="charset-box" transform="matrix(1,0,0,1,0,11.2)" width="34.67499923706055" height="62.20000076293945"></rect><text x="0" y="0" class="charset-label" transform="matrix(1,0,0,1,0,11.2)"><tspan>One of:</tspan></text><g transform="matrix(1,0,0,1,5,16.2)"><g class="literal" transform="matrix(1,0,0,1,0,0)"><g class="label"><rect width="24.675000190734863" height="23.600000381469727" rx="3" ry="3"></rect><text x="0" y="0" transform="matrix(1,0,0,1,5,16.8)"><tspan class="quote">“</tspan><tspan>2</tspan><tspan class="quote">”</tspan></text></g></g><g class="literal" transform="matrix(1,0,0,1,0,28.6)"><g class="label"><rect width="24.675000190734863" height="23.600000381469727" rx="3" ry="3"></rect><text x="0" y="0" transform="matrix(1,0,0,1,5,16.8)"><tspan class="quote">“</tspan><tspan>6</tspan><tspan class="quote">”</tspan></text></g></g></g></g></g></g></g></g><g class="match-fragment literal" transform="matrix(1,0,0,1,149.35,196)"><g class="label"><rect width="31.350000381469727" height="23.600000381469727" rx="3" ry="3"></rect><text x="0" y="0" transform="matrix(1,0,0,1,5,16.8)"><tspan class="quote">“</tspan><tspan>00</tspan><tspan class="quote">”</tspan></text></g></g></g></g></g></g><g class="match-fragment literal" transform="matrix(1,0,0,1,317.7,416.3)"><g class="label"><rect width="52.6875" height="23.600000381469727" rx="3" ry="3"></rect><text x="0" y="0" transform="matrix(1,0,0,1,5,16.8)"><tspan class="quote">“</tspan><tspan>-02-29</tspan><tspan class="quote">”</tspan></text></g></g></g></g></g></g><g class="match-fragment" transform="matrix(1,0,0,1,826.4002,754.4001)"><g class="label anchor"><rect width="67.23320388793945" height="23.600000381469727"></rect><text x="0" y="0" transform="matrix(1,0,0,1,5,16.8)"><tspan>End of line</tspan></text></g></g></g><path d="M10,766.2001001907348H0M903.6334000732422,766.2001001907348H913.6334228515625"></path><circle cx="0" cy="766.2001001907348" r="5"></circle><circle cx="913.6334228515625" cy="766.2001001907348" r="5"></circle></g></svg>
        